<?xml version="1.0" encoding="UTF-8"?>
<svg width="179px" height="149px" viewBox="0 0 179 149" version="1.1" xmlns="http://www.w3.org/2000/svg" xmlns:xlink="http://www.w3.org/1999/xlink">
    <!-- Generator: Sketch 55.2 (78181) - https://sketchapp.com -->
    <title>Path</title>
    <desc>Created with Sketch.</desc>
    <defs>
        <linearGradient x1="50%" y1="0%" x2="50%" y2="100%" id="linearGradient-1">
            <stop stop-color="#7434FA" offset="0%"></stop>
            <stop stop-color="#8E5DFF" offset="100%"></stop>
        </linearGradient>
    </defs>
    <g id="Page-1" stroke="none" stroke-width="1" fill="none" fill-rule="evenodd">
        <g id="Screenshot-2019-09-26-at-16" fill="url(#linearGradient-1)" fill-rule="nonzero">
            <path d="M56.05,12.96 C55.71,6.45 61.48,0.38 68.01,0.49 C79.98,0.53 91.95,0.51 103.93,0.51 C121.47,-0.03 139.02,6.31 152.45,17.55 C163.8,26.96 172.19,39.87 176.19,54.06 C181.24,71.82 179.4,91.46 170.97,107.9 C159.38,131.08 134.86,147.08 108.93,148.14 C95.63,148.38 82.33,148.17 69.03,148.25 C64.02,148.49 59.1,145.48 57.09,140.88 C55.7,138.12 56.09,134.94 56.04,131.95 C56.06,115.98 56.05,100 56.05,84.02 C69.46,84.15 82.87,83.63 96.28,83.67 C96.76,93.45 96.34,103.27 96.49,113.06 C102.92,113.01 109.35,113.14 115.79,112.98 C115.88,86.96 115.56,60.95 115.51,34.94 C109.01,34.96 102.51,34.94 96.01,34.94 C96.52,44.78 96.02,54.64 96.5,64.48 C83,64.5 69.5,64.46 56,64.5 C56,71 56,77.5 56,84 C44.34,84 32.67,84 21,84 C21,93.76 21,103.52 21,113.28 C14.42,113.34 7.81,113.57 1.23,113.17 C1.27,103.79 1.49,94.4 0.99,85.04 C1.07,68.38 0.88,51.73 1.08,35.08 C7.64,34.93 14.19,34.98 20.75,35.02 C20.55,44.78 21.25,54.52 21.01,64.29 C32.69,64.29 44.37,64.29 56.05,64.28 C56.06,47.18 56.05,30.07 56.05,12.96 Z" id="Path"></path>
        </g>
    </g>
</svg>